<svg width="124" height="124" viewBox="0 0 124 124" fill="none" xmlns="http://www.w3.org/2000/svg">
<path d="M93 13.5623V110.437C93.0024 111.213 92.8848 111.984 92.6513 112.724V112.743C92.1595 114.321 91.176 115.701 89.8444 116.68C88.5129 117.66 86.903 118.188 85.25 118.187H38.75C36.6946 118.187 34.7233 117.371 33.2699 115.917C31.8165 114.464 31 112.493 31 110.437V13.5623C31.0034 11.5628 31.7794 9.64205 33.166 8.20138C34.5525 6.76072 36.4421 5.91167 38.44 5.83169C38.5425 5.8156 38.6463 5.80911 38.75 5.81232H85.25C87.3054 5.81232 89.2767 6.62884 90.7301 8.08224C92.1835 9.53565 93 11.5069 93 13.5623Z" fill="#717171"/>
<path d="M93 13.5623V110.437C93.0024 111.213 92.8848 111.984 92.6513 112.724V112.743C92.1595 114.321 91.176 115.701 89.8444 116.68C88.5129 117.66 86.903 118.188 85.25 118.187H38.75C36.6946 118.187 34.7233 117.371 33.2699 115.917C31.8165 114.464 31 112.493 31 110.437V13.5623C31.0034 11.5628 31.7794 9.64205 33.166 8.20138C34.5525 6.76072 36.4421 5.91167 38.44 5.83169C38.5425 5.8156 38.6463 5.80911 38.75 5.81232H85.25C87.3054 5.81232 89.2767 6.62884 90.7301 8.08224C92.1835 9.53565 93 11.5069 93 13.5623Z" fill="#717171"/>
<path d="M85.2508 5.8125H80.9747L38.3633 118.149C38.4931 118.149 38.6171 118.188 38.7508 118.188H85.2508C86.9038 118.188 88.5137 117.66 89.8452 116.68C91.1768 115.701 92.1603 114.321 92.652 112.743V112.724C92.8855 111.984 93.0032 111.213 93.0008 110.438V13.5625C93.0008 11.5071 92.1843 9.53583 90.7309 8.08242C89.2775 6.62902 87.3062 5.8125 85.2508 5.8125Z" fill="#121212"/>
<path d="M93 17.4375H31V106.562H93V17.4375Z" fill="#C5D48E"/>
<path d="M38.75 44.5625C38.75 42.5071 39.5665 40.5358 41.0199 39.0824C42.4733 37.629 44.4446 36.8125 46.5 36.8125C48.5554 36.8125 50.5267 37.629 51.9801 39.0824C53.4335 40.5358 54.25 42.5071 54.25 44.5625C54.2501 46.4052 53.8872 48.2298 53.1821 49.9322C52.477 51.6346 51.4435 53.1815 50.1406 54.4844L46.5 58.125L42.8594 54.4844C41.5565 53.1815 40.523 51.6346 39.8179 49.9322C39.1128 48.2298 38.7499 46.4052 38.75 44.5625Z" fill="#8BAA1D"/>
<path d="M48.4375 42.625H44.5625V46.5H48.4375V42.625Z" fill="white"/>
<path d="M69.9244 106.562L47.7981 84.4169L31 101.215V84.785L69.5175 46.2675L40.6875 17.4375H56.1875L77.1861 38.5989L93 22.785V39.215L56.0131 76.2019L86.3544 106.562" fill="white"/>
<path d="M81.375 60.0625C83.5151 60.0625 85.25 58.3276 85.25 56.1875C85.25 54.0474 83.5151 52.3125 81.375 52.3125C79.2349 52.3125 77.5 54.0474 77.5 56.1875C77.5 58.3276 79.2349 60.0625 81.375 60.0625Z" fill="#8BAA1D"/>
<path d="M75.5625 25.1875C77.7026 25.1875 79.4375 23.4526 79.4375 21.3125C79.4375 19.1724 77.7026 17.4375 75.5625 17.4375C73.4224 17.4375 71.6875 19.1724 71.6875 21.3125C71.6875 23.4526 73.4224 25.1875 75.5625 25.1875Z" fill="#8BAA1D"/>
<path d="M52.3125 98.8125H44.5625V106.562H52.3125V98.8125Z" fill="#8BAA1D"/>
<path d="M101.77 68.7037L93.0009 58.125V83.3125L76.5321 66.8438C75.2405 65.5934 73.5091 64.9008 71.7114 64.9154C69.9137 64.93 68.1938 65.6506 66.9226 66.9218C65.6514 68.193 64.9308 69.9129 64.9162 71.7105C64.9016 73.5082 65.5942 75.2396 66.8446 76.5312L83.3134 93L81.7188 95.7919C79.9032 98.9689 79.0844 102.618 79.3687 106.266C79.6531 109.914 81.0274 113.393 83.3134 116.25V120.125H106.563V81.4602C106.563 76.7679 104.86 72.2352 101.77 68.7037Z" fill="#FEC9A3"/>
</svg>
