<svg width="175" height="175" viewBox="0 0 175 175" fill="none" xmlns="http://www.w3.org/2000/svg">
<path d="M147.656 71.0938C144.222 68.9535 140.647 67.0469 136.957 65.3872L128.516 73.8282H43.75C32.9991 73.8278 22.4343 76.6337 13.1004 81.9685C11.6125 82.8175 10.3758 84.0451 9.51565 85.5267C8.65555 87.0082 8.20272 88.6909 8.20313 90.404V106.641H153.125L161.984 103.086C163.405 102.518 164.623 101.537 165.481 100.269C166.339 99.0021 166.797 97.5069 166.797 95.9767V73.8282L147.656 71.0938Z" fill="#C5D48E"/>
<path d="M136.957 65.3871C125.337 60.1412 112.734 57.4261 99.9852 57.4219H96.7641C81.7139 57.4216 66.9043 61.1983 53.6922 68.4059L43.75 73.8281H128.516L136.957 65.3871Z" fill="#D6D9DB"/>
<path d="M79.2969 73.8279H128.516L136.957 65.3869C130.714 62.5802 124.173 60.4941 117.458 59.1689L79.2969 73.8279Z" fill="#919191"/>
<path d="M166.797 79.2969H155.859V84.7656H166.797V79.2969Z" fill="#121212"/>
<path d="M84.7656 79.2969H73.8281V84.7656H84.7656V79.2969Z" fill="#8BAA1D"/>
<path d="M96.7641 57.4219C95.4953 57.4219 94.232 57.4875 92.9688 57.5422V73.8281H98.4375V57.4219H96.7641Z" fill="#121212"/>
<path d="M8.20312 95.7031V106.641H153.125L161.984 103.086C163.405 102.518 164.623 101.536 165.481 100.269C166.339 99.002 166.797 97.5068 166.797 95.9766V95.7031H8.20312Z" fill="#8BAA1D"/>
<path d="M32.8125 87.5C29.5677 87.5 26.3957 88.4622 23.6977 90.2649C20.9997 92.0677 18.8969 94.63 17.6551 97.6278C16.4134 100.626 16.0885 103.924 16.7215 107.107C17.3545 110.289 18.9171 113.213 21.2115 115.507C23.506 117.802 26.4293 119.364 29.6118 119.997C32.7943 120.63 36.0931 120.305 39.0909 119.064C42.0888 117.822 44.6511 115.719 46.4538 113.021C48.2565 110.323 49.2188 107.151 49.2188 103.906C49.2188 99.555 47.4902 95.382 44.4135 92.3053C41.3367 89.2285 37.1637 87.5 32.8125 87.5Z" fill="#121212"/>
<path d="M32.8125 112.109C37.343 112.109 41.0156 108.437 41.0156 103.906C41.0156 99.3758 37.343 95.7031 32.8125 95.7031C28.282 95.7031 24.6094 99.3758 24.6094 103.906C24.6094 108.437 28.282 112.109 32.8125 112.109Z" fill="#717171"/>
<path d="M136.719 87.5C133.474 87.5 130.302 88.4622 127.604 90.2649C124.906 92.0677 122.803 94.63 121.561 97.6278C120.32 100.626 119.995 103.924 120.628 107.107C121.261 110.289 122.823 113.213 125.118 115.507C127.412 117.802 130.336 119.364 133.518 119.997C136.701 120.63 139.999 120.305 142.997 119.064C145.995 117.822 148.557 115.719 150.36 113.021C152.163 110.323 153.125 107.151 153.125 103.906C153.125 99.555 151.396 95.382 148.32 92.3053C145.243 89.2285 141.07 87.5 136.719 87.5Z" fill="#121212"/>
<path d="M136.719 112.109C141.249 112.109 144.922 108.437 144.922 103.906C144.922 99.3758 141.249 95.7031 136.719 95.7031C132.188 95.7031 128.516 99.3758 128.516 103.906C128.516 108.437 132.188 112.109 136.719 112.109Z" fill="#717171"/>
<path d="M98.4375 73.8281H92.9688V106.641H98.4375V73.8281Z" fill="#8BAA1D"/>
</svg>
