<svg width="175" height="175" viewBox="0 0 175 175" fill="none" xmlns="http://www.w3.org/2000/svg">
<path d="M57.7586 37.4016L87.5 30L117.241 37.931L145 30V137.069L117.241 145L87.5 137.069L57.7586 145L30 137.069V30L41.8966 33.3984L57.7586 37.4016Z" fill="#C5D48E"/>
<path d="M41.8966 33.3984L30 30V137.069L57.7586 145V37.4016L41.8966 33.3984Z" fill="#8BAA1D"/>
<path d="M87.5 30V137.069L117.241 145V37.931L87.5 30Z" fill="#8BAA1D"/>
<path d="M30 51.8105L39.9138 61.7243V77.5864L53.7931 91.4657V81.5519H65.6897L77.5862 68.664L83.5345 67.6726L75.6034 57.7588L68.6638 64.6985L62.7155 58.7502L69.6552 51.8105H30Z" fill="#919191"/>
<path d="M53.7931 91.4653H69.6552L74.6121 96.4222H81.5517V113.276L71.6379 121.207V131.121L61.7241 123.189V111.293L53.7931 105.345V91.4653Z" fill="#919191"/>
<path d="M125.172 97.4137L133.103 85.5172H121.207L115.259 73.6206H99.3965L91.4655 82.543V91.4654H105.345V121.207H117.241L125.172 97.4137Z" fill="#919191"/>
<path d="M121.207 43.8794L111.293 55.7759H105.345V65.6897H125.172L129.138 75.6035H145V43.8794H121.207Z" fill="#919191"/>
<path d="M131.121 121.207L117.241 129.138L121.207 135.086L135.086 129.138L131.121 121.207Z" fill="#919191"/>
<path d="M93.4482 45.8622L97.4138 51.8105L117.616 37.8241L117.241 37.9312L95.4211 32.1118L97.4138 41.8967L93.4482 45.8622Z" fill="#919191"/>
<path d="M57.5108 81.5519V51.8105H30L39.9138 61.7243V77.5864L53.7931 91.4657V81.5519H57.5108Z" fill="#D6D9DB"/>
<path d="M53.7931 91.4653V105.345L57.5108 108.132V91.4653H53.7931Z" fill="#D6D9DB"/>
<path d="M99.3965 73.6206L91.4655 82.543V91.4654H105.345V121.207H117.241V77.5861L115.259 73.6206H99.3965Z" fill="#D6D9DB"/>
<path d="M111.293 55.7761H105.345V65.6899H117.241V48.6382L111.293 55.7761Z" fill="#D6D9DB"/>
<path d="M50.5433 30C48.6226 29.9996 46.7378 30.5205 45.0899 31.5073C43.4421 32.4941 42.093 33.9098 41.1867 35.6032C40.2803 37.2966 39.8507 39.2044 39.9436 41.1228C40.0365 43.0413 40.6484 44.8986 41.7141 46.4965L50.5433 59.7414L59.3726 46.4965C60.4376 44.8985 61.0489 43.0413 61.1415 41.1231C61.234 39.2048 60.8043 37.2975 59.898 35.6043C58.9918 33.9111 57.6431 32.4955 55.9956 31.5086C54.3482 30.5216 52.4638 30.0002 50.5433 30ZM50.5433 43.8793C49.759 43.8793 48.9923 43.6467 48.3402 43.211C47.6881 42.7753 47.1798 42.1559 46.8797 41.4313C46.5795 40.7067 46.501 39.9094 46.654 39.1402C46.807 38.3709 47.1847 37.6643 47.7393 37.1097C48.2939 36.5552 49.0005 36.1775 49.7697 36.0245C50.5389 35.8715 51.3363 35.95 52.0609 36.2501C52.7855 36.5503 53.4048 37.0585 53.8405 37.7107C54.2763 38.3628 54.5089 39.1295 54.5089 39.9138C54.5089 40.9655 54.0911 41.9742 53.3474 42.7178C52.6037 43.4615 51.5951 43.8793 50.5433 43.8793Z" fill="#121212"/>
<path d="M126.439 97.4141C124.519 97.4143 122.635 97.9357 120.987 98.9226C119.34 99.9096 117.991 101.325 117.085 103.018C116.179 104.712 115.749 106.619 115.841 108.537C115.934 110.455 116.545 112.313 117.61 113.911L126.439 127.155L135.269 113.911C136.334 112.313 136.946 110.455 137.039 108.537C137.132 106.618 136.702 104.711 135.796 103.017C134.89 101.324 133.541 99.9082 131.893 98.9214C130.245 97.9346 128.36 97.4136 126.439 97.4141ZM126.439 111.293C125.655 111.293 124.888 111.061 124.236 110.625C123.584 110.189 123.076 109.57 122.776 108.845C122.476 108.121 122.397 107.323 122.55 106.554C122.703 105.785 123.081 105.078 123.635 104.524C124.19 103.969 124.897 103.592 125.666 103.439C126.435 103.286 127.232 103.364 127.957 103.664C128.682 103.964 129.301 104.473 129.737 105.125C130.172 105.777 130.405 106.544 130.405 107.328C130.405 108.379 129.987 109.388 129.244 110.131C128.501 110.875 127.491 111.293 126.439 111.293Z" fill="#121212"/>
</svg>
