<svg width="124" height="124" viewBox="0 0 124 124" fill="none" xmlns="http://www.w3.org/2000/svg">
<path d="M114.671 49.8927L50.375 75.5626H17.4375L5.8125 56.1876L13.5625 54.2501L29.0625 63.9376L91.0625 39.7576C98.529 36.6218 106.912 36.4589 114.495 39.3023C115.579 39.7093 116.514 40.4377 117.174 41.3901C117.834 42.3426 118.188 43.4737 118.188 44.6324C118.188 45.7587 117.853 46.8598 117.227 47.7962C116.601 48.7325 115.712 49.4622 114.671 49.8927Z" fill="#8BAA1D"/>
<path d="M17.4375 5.8125L5.8125 9.6875L56.1875 54.25L79.4375 44.5625L17.4375 5.8125Z" fill="#C5D48E"/>
<path d="M59.5452 62L58.125 58.3943L61.7229 56.9761L63.1431 60.5817L59.5452 62ZM66.7411 59.1654L65.3209 55.5597L68.9188 54.1415L70.339 57.7472L66.7411 59.1654ZM73.9369 56.3309L72.5148 52.7252L76.1128 51.3069L77.5349 54.9126L73.9369 56.3309ZM81.1328 53.4963L79.7107 49.8906L83.3125 48.4743L84.7327 52.078L81.1328 53.4963ZM88.3268 50.6617L86.9066 47.0561L90.5045 45.6378L91.9247 49.2435L88.3268 50.6617ZM95.5187 47.8272L94.0986 44.2215L97.6946 42.8052L99.1167 46.4089L95.5187 47.8272Z" fill="#121212"/>
<path d="M112.375 89.125H104.625V118.188H112.375V89.125Z" fill="#D7E1AD"/>
<path d="M116.25 89.125H100.75L98.8125 79.4375H118.188L116.25 89.125Z" fill="#D7E1AD"/>
<path d="M112.375 71.6875H104.625V79.4375H112.375V71.6875Z" fill="#D7E1AD"/>
<path d="M110.438 63.9375H106.562V71.6875H110.438V63.9375Z" fill="#C5D48E"/>
<path d="M112.375 89.125H104.625V93H112.375V89.125Z" fill="#C5D48E"/>
<path d="M96.875 102.688H42.625V118.188H96.875V102.688Z" fill="#D7E1AD"/>
<path d="M91.0625 108.5H87.1875V112.375H91.0625V108.5Z" fill="#C5D48E"/>
<path d="M83.3125 108.5H79.4375V112.375H83.3125V108.5Z" fill="#C5D48E"/>
<path d="M75.5625 108.5H71.6875V112.375H75.5625V108.5Z" fill="#C5D48E"/>
<path d="M67.8125 108.5H63.9375V112.375H67.8125V108.5Z" fill="#C5D48E"/>
<path d="M60.0625 108.5H56.1875V112.375H60.0625V108.5Z" fill="#C5D48E"/>
<path d="M52.3125 108.5H48.4375V112.375H52.3125V108.5Z" fill="#C5D48E"/>
<path d="M42.625 108.5H19.375V118.188H42.625V108.5Z" fill="#C5D48E"/>
<path d="M103.399 44.3689L115.303 39.6821C115.044 39.532 114.774 39.4024 114.495 39.2946C112.814 38.6734 111.083 38.1951 109.322 37.8647L101.976 40.7652L103.399 44.3689Z" fill="#121212"/>
<path d="M120.125 116.25H3.875V120.125H120.125V116.25Z" fill="#C5D48E"/>
</svg>
